# xmcd
#
# Track frame offsets:
#	150
#	16079
#	36065
#	52664
#	72507
#	93106
#	110740
#	122205
#	134041
#	149651
#	168655
#	186670
#	201089
#
# Disc length: 2920 seconds
# Revision: 0
# Processed by: cddbd v1.5.2PL0 Copyright (c) Steve Scherf et al.
# Submitted via: dBpowerAMP V12.0
#
DISCID=c50b660d
DTITLE=Lauren Mascitti - Thought I'd Get A Love Song
DYEAR=2010
DGENRE=Country
TTITLE0=Tears Behind My Eyes
TTITLE1=Thought I'd Get A Love Song
TTITLE2=I Jus Wanna Drive
TTITLE3=Empty Promises
TTITLE4=I Hope You Hurt
TTITLE5=You Say You Will
TTITLE6=Leavin On Your Mind
TTITLE7=That's What I Like About You
TTITLE8=Jeans on
TTITLE9=You Won't Matter
TTITLE10=Move That Mountain
TTITLE11=Puttin My Faith In You
TTITLE12=Save Me From Myself
EXTD=
EXTT0=
EXTT1=
EXTT2=
EXTT3=
EXTT4=
EXTT5=
EXTT6=
EXTT7=
EXTT8=
EXTT9=
EXTT10=
EXTT11=
EXTT12=
PLAYORDER=
